# xmcd
#
# Track frame offsets:
# 150
# 15421
# 36911
# 51972
# 65938
# 84794
# 99566
# 116231
# 131948
# 147740
# 168956
# 188140
# 204464
# 220446
# 243096
#
# Disc length: 3442 seconds
#
#
# Revision: 0
# Processed by: cddbd v1.5.2PL0 Copyright (c) Steve Scherf et al.
# Submitted via: FreeRIP 2.951 
#
DISCID=e10d700f
DTITLE=Antonello - Romantica- Antonello Vol 2
DYEAR=1900
DGENRE=
TTITLE0=RESTA CU'MME
TTITLE1=QUANDO QUANDO
TTITLE2=SAPORE DI SALE
TTITLE3=COLPEVOLE
TTITLE4=CON TE PARTIRO
TTITLE5=PREGHERO
TTITLE6=UN'ESTATE FA'
TTITLE7=DIO COME TI AMO
TTITLE8=GRANDE GRANDE GRANDE
TTITLE9=LA MIA VITA
TTITLE10=AMORE BACIAMI
TTITLE11=NEL BLU DIPINO DI BLU
TTITLE12=AL DI LA
TTITLE13=L'AURORA
TTITLE14=TU SI'NA COSA GRANDE
EXTD=
EXTT0=
EXTT1=
EXTT2=
EXTT3=
EXTT4=
EXTT5=
EXTT6=
EXTT7=
EXTT8=
EXTT9=
EXTT10=
EXTT11=
EXTT12=
EXTT13=
EXTT14=
PLAYORDER=
